<?xml version="1.0" standalone="no"?>
<!DOCTYPE svg PUBLIC "-//W3C//DTD SVG 20010904//EN"
 "http://www.w3.org/TR/2001/REC-SVG-20010904/DTD/svg10.dtd">
<svg version="1.0" xmlns="http://www.w3.org/2000/svg"
 width="945.000000pt" height="945.000000pt" viewBox="0 0 945.000000 945.000000"
 preserveAspectRatio="xMidYMid meet">
<metadata>
Created by potrace 1.11, written by Peter Selinger 2001-2013
</metadata>
<g transform="translate(0.000000,945.000000) scale(0.100000,-0.100000)"
fill="#000000" stroke="none">
<path d="M3295 8244 c-903 -69 -1597 -301 -2068 -694 -305 -255 -474 -555
-532 -945 -22 -144 -24 -449 -6 -630 108 -1042 681 -2468 1468 -3654 552 -830
1098 -1369 1525 -1503 63 -20 93 -23 218 -22 594 2 1410 354 2205 951 854 641
1566 1464 1968 2274 74 150 187 417 187 444 0 10 -871 1286 -899 1317 -4 4 -3
-34 2 -85 4 -50 6 -193 4 -317 -12 -619 -140 -1246 -380 -1855 -67 -169 -238
-510 -326 -650 -309 -491 -595 -704 -1122 -834 -220 -54 -376 -72 -669 -78
-282 -5 -447 6 -695 48 -688 116 -1319 422 -1769 859 -386 374 -644 822 -782
1358 -109 426 -144 934 -81 1202 91 386 285 719 612 1046 226 227 471 405 756
549 1023 519 2227 536 3502 51 37 -14 67 -23 67 -20 0 3 -126 189 -280 413
l-281 408 -162 51 c-455 144 -906 238 -1407 294 -150 16 -263 21 -595 23 -225
1 -432 1 -460 -1z"/>
<path d="M4220 5530 l0 -1110 215 0 215 0 0 1110 0 1110 -215 0 -215 0 0
-1110z"/>
<path d="M3570 5310 l0 -1110 -325 0 -325 0 0 110 0 110 215 0 215 0 0 204 c0
160 -3 206 -14 215 -9 8 -130 10 -427 9 l-414 -3 -3 -537 -2 -538 750 0 750 0
0 1325 0 1325 -210 0 -210 0 0 -1110z"/>
<path d="M4868 5308 l-3 -1113 -322 -3 -323 -2 0 -210 0 -210 1078 2 1077 3 3
529 c2 417 0 531 -10 538 -22 13 -822 10 -836 -4 -9 -9 -12 -70 -12 -215 l0
-203 213 -2 212 -3 3 -107 3 -108 -326 0 -325 0 0 1110 0 1110 -215 0 -215 0
-2 -1112z"/>
</g>
</svg>
